<svg xmlns="http://www.w3.org/2000/svg" xmlns:xlink="http://www.w3.org/1999/xlink" version="1.1" x="0px" y="0px" viewBox="0 0 100 100" style="enable-background:new 0 0 100 100;" xml:space="preserve"><polygon points="32.7,32.3 28.4,35.5 27.6,39.3 33.3,34.9 "></polygon><path d="M33.6,36.3l-5.2,4l2.6,2.5c0,0,0.1,0,0.1,0c0,0,0.1,0,0.1-0.1l3-3.3c0,0,0.1-0.1,0-0.2L33.6,36.3z"></path><path d="M30,28.7l-1.1,4.9l3.5-2.7l-0.5-2.1l1.5-1.8c0-0.1,0.1-0.1,0-0.2l-0.9-2.4c0-0.1-0.1-0.1-0.2-0.1h-2.8  c-0.1,0-0.1,0-0.2,0.1l-0.9,2.4c0,0.1,0,0.2,0,0.2L30,28.7z"></path><path d="M39.4,24.2h-0.2l-4.9,21.6l-6.7,0.1l-5.3-21.7h-0.4c-4.5,0-8.2,3.7-8.2,8.2l0.6,19.7c0,3.4,2.5,6.2,5.8,6.6l3,37.3  c0.3,2.9,4.2,2.7,4.2,2.7h3.3h0h3.3c0,0,3.9,0.2,4.2-2.7l3-37.3c0.1,0,0.3-0.1,0.3-0.1c3-0.6,5.4-3.3,5.4-6.5l0.6-19.7  C47.6,27.9,43.9,24.2,39.4,24.2z M44,32.3h-3.8v-1.2H44V32.3z"></path><path d="M31,1.5c-5.6,0-10.2,4.6-10.2,10.2S25.3,22,31,22s10.2-4.6,10.2-10.2S36.6,1.5,31,1.5z M38.7,11.8c0,4.3-3.5,7.7-7.7,7.7  s-7.7-3.5-7.7-7.7c0-0.7,0.1-1.3,0.2-1.9c0.9,0.4,2.6,1.1,4.4,1.1c1.3,0,2.8-0.3,4.2-1.3c0.1-0.1,3.6-2.5,6.3-0.1  C38.6,10.3,38.7,11,38.7,11.8z"></path><path d="M84,13.8C81.8,5.4,73.3,0.5,65,2.7c-8.3,2.2-13.3,10.7-11.1,19c1,3.9,3.5,7.1,6.7,9.2l-4.1,6.3l16.4-4.3  C81.2,30.6,86.2,22.1,84,13.8z M75.2,15.6l-2.8,2.7l0.7,3.8c0,0.2,0,0.4-0.2,0.5c-0.1,0.1-0.2,0.1-0.3,0.1c-0.1,0-0.2,0-0.2-0.1  l-3.4-1.8l-3.4,1.8c-0.2,0.1-0.4,0.1-0.5,0c-0.2-0.1-0.2-0.3-0.2-0.5l0.7-3.8l-2.8-2.7c-0.1-0.1-0.2-0.3-0.1-0.5  c0.1-0.2,0.2-0.3,0.4-0.3l3.8-0.6l1.7-3.5c0.2-0.3,0.7-0.3,0.9,0l1.7,3.5l3.8,0.6c0.2,0,0.4,0.2,0.4,0.3  C75.4,15.2,75.4,15.4,75.2,15.6z"></path></svg>