<svg xmlns="http://www.w3.org/2000/svg" xmlns:xlink="http://www.w3.org/1999/xlink" version="1.1" x="0px" y="0px" viewBox="0 0 262.914 298.217" style="enable-background:new 0 0 262.914 298.217;" xml:space="preserve"><g><path d="M117.904,73.359c20.256,0,36.68-16.423,36.68-36.68c0-20.258-16.424-36.68-36.68-36.68c-20.258,0-36.68,16.422-36.68,36.68   C81.225,56.937,97.646,73.359,117.904,73.359z M119.08,7.523c16.881,0,30.568,13.685,30.568,30.567   c0,16.881-13.688,30.566-30.568,30.566c-16.881,0-30.567-13.685-30.567-30.566C88.513,21.208,102.199,7.523,119.08,7.523z"></path><path d="M108.189,44.652c2.098,2.892,4.542,7.1,4.542,11.021c0,6.858,11.367,6.858,11.367,0c0-3.921,2.447-8.129,4.543-11.021   c3.348-2.879,5.476-7.136,5.476-11.898c0-8.671-7.03-15.7-15.701-15.7s-15.7,7.029-15.7,15.7   C102.716,37.516,104.844,41.772,108.189,44.652z M118.416,20.3c6.865,0,12.452,5.586,12.452,12.454c0,3.621-1.586,7.06-4.348,9.435   l-0.288,0.246l-0.224,0.31c-1.172,1.62-2.132,3.19-2.906,4.716h-9.371c-0.775-1.528-1.736-3.1-2.911-4.72l-0.223-0.307   l-0.287-0.246c-2.763-2.375-4.347-5.814-4.347-9.435C105.964,25.887,111.55,20.3,118.416,20.3z"></path><path d="M110.46,33.598c0.553,0,1-0.449,1-1c0.008-3.972,3.217-7.184,7.189-7.191c0.551,0,0.998-0.447,0.998-0.998   c0-0.554-0.447-1-0.998-1c-5.077,0-9.188,4.113-9.19,9.19C109.459,33.149,109.907,33.598,110.46,33.598z"></path><path d="M88.819,82.517c0,5.183,4.202,9.385,9.386,9.385c5.182,0,9.383-4.202,9.383-9.385c0-5.182-4.201-9.384-9.383-9.384   C93.021,73.133,88.819,77.335,88.819,82.517z M103.527,83.78c0,3.39-2.747,6.136-6.135,6.136c-3.39,0-6.137-2.747-6.137-6.136   c0-3.388,2.747-6.135,6.137-6.135C100.78,77.645,103.527,80.392,103.527,83.78z"></path><path d="M80.208,102.778c2.967,2.663,7.53,2.416,10.195-0.55c2.662-2.967,2.415-7.531-0.552-10.194   c-2.968-2.663-7.531-2.416-10.193,0.551C76.995,95.551,77.24,100.115,80.208,102.778z M80.404,94.559   c1.74-1.94,4.725-2.101,6.664-0.36c1.939,1.741,2.102,4.726,0.359,6.665c-1.74,1.94-4.725,2.101-6.664,0.36   C78.822,99.483,78.662,96.499,80.404,94.559z"></path><path d="M64.359,102.916c2.686,1.797,6.321,1.076,8.118-1.611c1.796-2.686,1.075-6.321-1.613-8.118   c-2.686-1.797-6.319-1.076-8.116,1.611C60.95,97.484,61.671,101.119,64.359,102.916z M63.572,96.297   c1.174-1.756,3.551-2.229,5.309-1.054c1.755,1.175,2.227,3.552,1.053,5.308c-1.176,1.757-3.551,2.229-5.309,1.054   C62.868,100.43,62.396,98.054,63.572,96.297z"></path><path d="M60.292,131.649l12.836,11.507l-22.309-0.552c-0.777-0.019-1.529,0.079-2.244,0.269c-0.6,0.017-1.2,0.079-1.803,0.199   c-8.63,1.717-17.843,11.192-16.147,26.583c2.455,21.148,6.734,33.648,18.554,52.635c9.701,13.226,20.387,10.012,28.624,5.995   c3.455-1.684,6.032-3.127,7.372-5.137c0.098-0.108,0.205-0.204,0.3-0.316l35.851-42.337l42.002,9.083   c6.747,1.457,13.4-2.831,14.858-9.577c1.46-6.747-2.828-13.4-9.575-14.858l-49.336-10.666c-4.521-0.979-9.19,0.608-12.181,4.14   l-1.11,1.311c1.055-0.368,2.165-0.568,3.277-0.568c3.759,0,7.164,2.072,8.891,5.41c2.531,4.898,0.608,10.942-4.29,13.476   c-10.468,5.421-20.769,8.294-30.64,8.562l-7.523,8.885c-1.281-3.179-2.425-6.43-3.456-9.685   c-8.519-1.521-15.097-4.885-19.501-7.829c-6.039-4.03-9.41-8.075-10.299-9.216c-3.359-4.399-2.516-10.687,1.865-14.032   c1.761-1.343,3.857-2.054,6.064-2.054c3.102,0,5.975,1.4,7.881,3.841l0.043,0.05l0.121,0.139c0.199,0.229,0.523,0.59,0.98,1.039   c0.892,0.886,2.381,2.224,4.429,3.583c0.729,0.482,1.476,0.925,2.231,1.342c-0.178-0.718-0.355-1.432-0.528-2.12   c-0.097-0.6-0.22-1.195-0.361-1.785l29.267,0.725c0.068,0.001,0.137,0.003,0.204,0.003c3.276,0,6.218-1.989,7.431-5.047   c1.238-3.123,0.404-6.667-2.096-8.911l-29-25.999c-3.289-2.95-8.348-2.673-11.298,0.617c-0.649,0.723-1.132,1.535-1.471,2.388   c-0.145,0.818-0.322,1.626-0.548,2.42C57.501,127.528,58.388,129.942,60.292,131.649z"></path><ellipse transform="matrix(0.9776 -0.2105 0.2105 0.9776 -24.1629 9.8293)" cx="34.09" cy="118.416" rx="22.495" ry="22.493"></ellipse><polygon points="147.842,203.473 237.248,203.473 237.248,287.475 247.748,287.475 247.748,203.473 262.914,203.473    262.914,193.473 147.842,193.473  "></polygon><polygon points="184.901,188.309 231.047,188.309 252.688,145.727 246.448,142.556 226.753,181.308 184.901,181.308  "></polygon><path d="M70.467,293.22c-1.363-4.524-2.827-9.012-4.354-13.475l36.6-18.302l6.261,12.521l9.839-4.919l-17.293-34.583l2.087-1.043   l-4.919-9.839l-45.736,22.87c-11.846-26.252-26.656-51.128-44.21-74.115c-2.913,2.226-5.828,4.45-8.741,6.676   c27.276,35.719,47.752,76.129,60.473,119.207L70.467,293.22z M91.681,239.381l8.348,16.695l-35.919,17.961   c-2.117-5.885-4.38-11.711-6.783-17.478L91.681,239.381z"></path><path d="M57.993,159.37c-0.506-0.501-0.869-0.901-1.08-1.145c-0.102-0.117-0.169-0.198-0.2-0.236   c-0.009-0.012-0.015-0.02-0.019-0.022c-2.691-3.466-7.678-4.118-11.173-1.45c-3.511,2.682-4.183,7.702-1.501,11.213   c0.38,0.489,3.585,4.614,9.832,8.783c6.22,4.157,15.66,8.328,27.815,8.317c0.016,0,0.031,0,0.047,0   c9.152,0.001,19.682-2.384,31.229-8.364c3.926-2.03,5.461-6.857,3.433-10.781c-2.03-3.925-6.857-5.462-10.78-3.432   c-9.634,4.97-17.512,6.569-23.928,6.577c-8.479-0.01-14.682-2.817-18.949-5.638C60.6,161.785,59.006,160.374,57.993,159.37z"></path></g></svg>