<svg xmlns="http://www.w3.org/2000/svg" xmlns:xlink="http://www.w3.org/1999/xlink" version="1.1" x="0px" y="0px" viewBox="0 0 32 32" style="enable-background:new 0 0 32 32;" xml:space="preserve"><path d="M7,2C4.791,2,3,3.791,3,6c0,2.209,1.791,4,4,4s4-1.791,4-4C11,3.791,9.209,2,7,2z M7,12c-2.209,0-4,1.791-4,4  c0,2.209,1.791,4,4,4s4-1.791,4-4C11,13.791,9.209,12,7,12z M7,22c-2.209,0-4,1.791-4,4c0,2.209,1.791,4,4,4s4-1.791,4-4  C11,23.791,9.209,22,7,22z M16,3c-1.657,0-3,1.343-3,3s1.343,3,3,3s3-1.343,3-3S17.657,3,16,3z M23,4c-1.105,0-2,0.895-2,2  c0,1.105,0.895,2,2,2s2-0.895,2-2C25,4.895,24.105,4,23,4z M28,7c0.552,0,1-0.448,1-1c0-0.552-0.448-1-1-1s-1,0.448-1,1  C27,6.552,27.448,7,28,7z M16,13c-1.657,0-3,1.343-3,3s1.343,3,3,3s3-1.343,3-3S17.657,13,16,13z M23,14c-1.105,0-2,0.895-2,2  c0,1.105,0.895,2,2,2s2-0.895,2-2C25,14.895,24.105,14,23,14z M28,15c-0.552,0-1,0.448-1,1c0,0.552,0.448,1,1,1s1-0.448,1-1  C29,15.448,28.552,15,28,15z M16,23c-1.657,0-3,1.343-3,3s1.343,3,3,3s3-1.343,3-3S17.657,23,16,23z M23,24c-1.105,0-2,0.895-2,2  c0,1.105,0.895,2,2,2s2-0.895,2-2C25,24.895,24.105,24,23,24z M28,25c-0.552,0-1,0.448-1,1c0,0.552,0.448,1,1,1s1-0.448,1-1  C29,25.448,28.552,25,28,25z"></path></svg>